<?xml version="1.0" encoding="UTF-8"?>
<!-- Created with Inkscape (http://www.inkscape.org/) -->
<svg width="108" height="108" version="1.1" viewBox="0 0 108 108" xmlns="http://www.w3.org/2000/svg" xmlns:xlink="http://www.w3.org/1999/xlink">
 <defs>
  <radialGradient id="background" cx="54" cy="54" r="54" gradientUnits="userSpaceOnUse">
   <stop stop-color="#ffe6d5" offset="0"/>
   <stop stop-color="#fca" offset="1"/>
  </radialGradient>
 </defs>
 <path id="background" d="m54 0c43.2 0 54 10.8 54 54 0 43.2-10.8 54-54 54-43.2 0-54-10.8-54-54 0-43.2 10.8-54 54-54z" fill="url(#background)" stroke-linecap="round" stroke-linejoin="bevel" stroke-width=".108"/>
 <g id="logo" transform="translate(4 .023438)" fill="none">
  <g id="eye-r">
   <path id="eye-r-b" d="m69.188 62.375q-1.8906 0-3.4531-0.5625-1.5469-0.5625-2.7812-1.5781t-2.1562-2.4375q-0.90625-1.4375-1.5156-3.1719-0.59375-1.75-0.89062-3.75-0.29688-2.0156-0.29688-4.1875 0-1.9688 0.28125-3.7188 0.29688-1.7656 0.73438-3.375h20.172q0.4375 1.6094 0.71875 3.375 0.29688 1.75 0.29688 3.7188 0 2.1719-0.29688 4.1875-0.29688 2-0.90625 3.75-0.59375 1.7344-1.5156 3.1719-0.92188 1.4219-2.1562 2.4375t-2.7969 1.5781q-1.5469 0.5625-3.4375 0.5625z" fill="#1a1a1a"/>
   <path id="eye-r-f" d="m69.203 59.781q1.4375 0 2.6094-0.48438 1.1875-0.5 2.125-1.375t1.625-2.0938 1.1406-2.6719q0.45312-1.4688 0.67188-3.1094 0.23438-1.6406 0.23438-3.375 0-1.25-0.125-2.3438-0.10938-1.0938-0.35938-2.1719h-15.859q-0.48438 2.0469-0.48438 4.5156 0 1.7344 0.21875 3.375 0.23438 1.6406 0.6875 3.1094 0.45312 1.4531 1.1406 2.6719 0.70312 1.2188 1.6406 2.0938t2.1094 1.375q1.1875 0.48438 2.625 0.48438z" fill="#f00"/>
  </g>
  <path id="mouth" d="m44.609 63.234h1.9219q1.7812 1.1562 3.4219 2.9531 1.9688-1.9688 3.4844-2.9531h1.9844v0.42188q-3.2031 3.2031-4 4.7031h-2.875q-0.9375-1.5938-3.9375-4.7031z" fill="#1a1a1a"/>
  <g id="eye-l">
   <path id="eye-l-b" d="m30.797 62.375q-1.8906 0-3.4531-0.5625-1.5469-0.5625-2.7812-1.5781t-2.1562-2.4375q-0.90625-1.4375-1.5156-3.1719-0.59375-1.75-0.89062-3.75-0.29688-2.0156-0.29688-4.1875 0-1.9688 0.28125-3.7188 0.29688-1.7656 0.73438-3.375h20.172q0.4375 1.6094 0.71875 3.375 0.29688 1.75 0.29688 3.7188 0 2.1719-0.29688 4.1875-0.29688 2-0.90625 3.75-0.59375 1.7344-1.5156 3.1719-0.92188 1.4219-2.1562 2.4375t-2.7969 1.5781q-1.5469 0.5625-3.4375 0.5625z" fill="#1a1a1a"/>
   <path id="eye-l-f" d="m30.813 59.781q1.4375 0 2.6094-0.48438 1.1875-0.5 2.125-1.375t1.625-2.0938 1.1406-2.6719q0.45312-1.4688 0.67188-3.1094 0.23438-1.6406 0.23438-3.375 0-1.25-0.125-2.3438-0.10938-1.0938-0.35938-2.1719h-15.859q-0.48438 2.0469-0.48438 4.5156 0 1.7344 0.21875 3.375 0.23438 1.6406 0.6875 3.1094 0.45312 1.4531 1.1406 2.6719 0.70312 1.2188 1.6406 2.0938t2.1094 1.375q1.1875 0.48438 2.625 0.48438z" fill="#f00"/>
  </g>
 </g>
</svg>
